<?xml version="1.0" standalone="no"?>
<!DOCTYPE svg PUBLIC "-//W3C//DTD SVG 20010904//EN"
 "http://www.w3.org/TR/2001/REC-SVG-20010904/DTD/svg10.dtd">
<svg version="1.0" xmlns="http://www.w3.org/2000/svg"
 width="2036.000000pt" height="2053.000000pt" viewBox="0 0 2036.000000 2053.000000"
 preserveAspectRatio="xMidYMid meet">

<g transform="translate(0.000000,2053.000000) scale(0.100000,-0.100000)"
fill="#000000" stroke="none">
<path d="M7670 20484 c-287 -61 -516 -222 -619 -434 -34 -70 -36 -81 -36 -170
0 -83 3 -103 29 -157 72 -158 254 -258 488 -270 86 -5 107 -9 111 -22 2 -9 36
-137 75 -286 172 -653 233 -975 248 -1311 8 -169 -10 -463 -29 -480 -7 -6 -55
-28 -107 -49 -52 -21 -160 -69 -239 -106 -79 -38 -147 -69 -152 -69 -12 0
-154 165 -236 275 -90 119 -191 273 -325 489 -97 158 -98 160 -79 180 100 111
139 290 87 401 -131 282 -660 148 -837 -210 -27 -55 -33 -82 -37 -151 -4 -76
-2 -89 23 -140 31 -63 80 -104 157 -130 69 -22 221 -15 297 14 30 12 56 20 58
19 14 -14 214 -378 278 -507 96 -192 126 -260 167 -384 l29 -91 -27 -20 c-15
-11 -81 -62 -148 -114 -135 -104 -181 -133 -246 -156 -58 -21 -179 -20 -250 1
-211 63 -531 293 -995 715 -222 202 -480 449 -483 464 -2 7 10 40 26 72 57
112 77 196 76 318 -1 77 -6 123 -18 155 -43 113 -122 192 -233 232 -82 30
-231 29 -328 -2 -317 -100 -592 -398 -651 -707 -26 -136 -12 -243 43 -345 112
-206 411 -245 692 -92 35 19 64 34 66 32 1 -2 60 -66 131 -143 463 -503 774
-915 934 -1240 75 -152 105 -233 121 -335 25 -158 -33 -271 -165 -317 -73 -26
-249 -23 -381 7 -181 40 -408 124 -656 242 l-126 60 5 118 c4 100 2 128 -16
186 -60 194 -223 270 -397 185 -252 -124 -391 -520 -268 -766 30 -62 65 -99
123 -133 37 -22 57 -27 115 -27 90 0 164 33 244 110 32 30 61 55 65 55 4 0 74
-39 154 -87 328 -193 525 -330 654 -451 l67 -64 -19 -38 c-10 -20 -42 -97 -71
-170 -100 -256 -177 -326 -404 -362 -94 -14 -333 -5 -520 22 -256 37 -688 126
-1070 221 -219 55 -195 43 -195 99 0 79 -28 189 -70 278 -48 100 -124 181
-207 220 -50 23 -71 27 -154 27 -93 0 -98 -1 -183 -43 -184 -91 -327 -290
-397 -552 -31 -114 -34 -359 -6 -460 67 -237 220 -380 407 -380 178 0 387 155
494 365 15 30 29 55 32 55 6 0 390 -106 549 -151 579 -165 898 -299 1214 -505
111 -74 113 -75 107 -107 -21 -116 -55 -401 -68 -577 -3 -34 -5 -35 -68 -53
-100 -27 -268 -55 -425 -72 -166 -17 -667 -37 -676 -27 -4 4 -14 32 -22 62
-18 63 -74 160 -119 206 -16 18 -53 45 -81 60 -69 38 -169 40 -236 5 -95 -50
-174 -166 -207 -307 -21 -92 -15 -275 14 -354 33 -93 71 -159 118 -207 121
-121 281 -124 398 -8 46 47 98 137 115 203 l12 42 217 0 c362 0 659 -24 827
-66 148 -37 135 -30 135 -77 0 -23 9 -98 19 -167 38 -248 36 -307 -10 -404
-115 -245 -583 -462 -1695 -786 l-209 -61 -25 33 c-130 168 -249 258 -391 294
-227 58 -432 -85 -494 -347 -19 -84 -19 -259 1 -357 40 -197 132 -369 269
-508 74 -75 106 -98 179 -135 l89 -44 111 0 c107 0 113 1 174 34 34 19 80 54
103 78 88 95 142 268 138 435 -2 48 -1 89 2 92 7 7 424 112 699 176 527 122
808 165 1038 158 119 -4 157 -8 201 -26 128 -51 168 -101 275 -349 l74 -173
-77 -67 c-165 -147 -373 -295 -659 -471 l-163 -101 -62 40 c-87 57 -178 82
-275 77 -86 -4 -135 -23 -183 -72 -98 -97 -102 -276 -12 -450 48 -91 182 -228
268 -273 170 -89 345 -83 437 14 74 77 94 224 49 348 -12 33 -24 67 -27 76 -4
13 32 38 158 108 307 173 636 325 748 346 l35 6 119 -157 c135 -180 176 -257
183 -347 21 -263 -244 -645 -1000 -1443 l-199 -210 -82 24 c-98 30 -272 40
-359 22 -80 -16 -188 -73 -232 -121 -115 -128 -127 -327 -30 -518 145 -289
491 -502 815 -503 206 -1 354 75 425 219 41 82 47 210 15 315 -25 84 -72 174
-130 247 -22 28 -40 54 -40 59 0 11 506 497 675 648 450 405 695 548 878 514
82 -16 160 -60 331 -190 88 -66 179 -133 203 -148 23 -15 43 -30 43 -33 0 -4
-18 -58 -39 -121 -73 -209 -170 -421 -342 -739 l-79 -147 -38 9 c-96 22 -236
2 -311 -45 -174 -110 -159 -344 33 -523 130 -122 283 -185 446 -185 112 0 190
24 251 79 128 115 107 307 -51 477 l-63 67 23 42 c59 107 240 403 308 502 79
117 201 271 250 319 l31 28 83 -35 c46 -20 114 -48 151 -62 154 -57 232 -114
280 -203 98 -179 87 -508 -38 -1129 -38 -189 -63 -302 -157 -696 l-11 -47 -83
0 c-204 0 -410 -78 -510 -194 -20 -22 -48 -66 -63 -96 -22 -47 -26 -68 -26
-150 0 -89 2 -100 37 -172 74 -156 238 -291 443 -364 534 -190 1060 87 937
493 -36 117 -153 259 -271 329 -17 10 -31 25 -31 33 0 20 109 415 181 651 147
489 271 771 475 1076 l54 81 51 -8 c28 -5 128 -15 223 -24 211 -19 287 -40
338 -92 90 -92 130 -274 143 -648 3 -88 8 -221 10 -296 l6 -136 -68 -26 c-123
-49 -234 -151 -268 -246 -60 -172 58 -334 282 -387 100 -24 253 -15 358 20
100 34 156 66 222 129 137 129 144 300 17 417 -53 48 -149 97 -212 106 l-45 7
6 321 c9 444 28 594 90 697 52 87 112 109 357 129 69 5 167 15 218 22 109 14
85 32 202 -162 177 -292 331 -641 468 -1055 76 -229 176 -564 171 -569 -2 -1
-40 -22 -84 -47 -95 -52 -227 -179 -268 -255 -138 -262 -7 -512 323 -616 66
-20 95 -23 245 -23 194 0 271 16 423 86 269 124 429 349 393 550 -15 88 -46
146 -116 214 -96 95 -240 156 -408 172 l-63 6 -72 276 c-179 692 -233 1035
-218 1401 9 249 14 288 40 296 11 3 91 39 176 79 85 40 175 78 200 85 161 43
289 -84 611 -609 l107 -175 -44 -50 c-89 -101 -144 -252 -126 -348 27 -140
138 -219 307 -219 160 1 310 66 436 191 162 160 208 351 116 487 -64 96 -218
137 -375 100 l-62 -14 -34 56 c-139 229 -309 559 -345 668 -27 80 -27 162 -1
213 24 46 63 79 240 200 74 51 154 108 177 126 23 19 46 34 52 34 30 0 286
-146 457 -261 296 -198 589 -445 1022 -862 l123 -119 -39 -76 c-155 -299 -105
-589 120 -695 268 -127 677 39 899 365 22 32 57 94 79 139 99 205 92 433 -16
562 -131 156 -378 180 -631 62 l-93 -44 -262 272 c-845 878 -1023 1159 -900
1419 16 35 93 149 170 253 78 105 148 199 155 209 13 19 15 19 87 -3 173 -53
419 -162 684 -303 l188 -100 -7 -32 c-24 -113 -24 -217 1 -281 47 -124 169
-190 305 -166 195 34 397 238 453 457 23 89 21 210 -5 278 -24 65 -96 136
-157 154 -119 36 -259 -7 -394 -121 l-47 -40 -133 79 c-321 189 -525 330 -660
454 l-68 61 24 47 c13 26 44 103 71 170 82 213 149 287 299 335 64 20 91 22
276 22 226 -1 380 -20 737 -91 188 -37 604 -132 711 -161 l64 -18 4 -96 c8
-187 63 -329 165 -424 282 -260 741 19 876 533 32 124 37 320 10 422 -42 155
-116 260 -230 321 -59 33 -67 34 -168 34 -104 0 -107 -1 -192 -43 -100 -49
-219 -155 -282 -251 -22 -33 -46 -61 -54 -61 -20 0 -416 109 -655 181 -347
105 -599 202 -805 310 -115 60 -361 216 -361 228 0 3 4 33 10 66 5 33 16 138
25 233 18 199 36 260 92 314 105 100 293 135 784 145 l286 6 23 -72 c60 -186
184 -292 329 -278 74 6 125 33 183 95 95 101 141 235 142 407 1 163 -42 287
-132 387 -84 93 -202 123 -303 76 -94 -44 -185 -158 -220 -275 l-12 -43 -246
0 c-408 0 -650 23 -761 71 -107 47 -135 108 -156 332 -8 89 -21 205 -29 257
-7 52 -13 96 -12 97 2 1 74 45 162 98 297 180 630 330 1030 464 208 70 642
201 665 201 8 0 34 -31 57 -68 158 -256 425 -352 625 -226 210 133 308 500
223 829 -74 282 -253 499 -455 551 -270 69 -515 -178 -539 -544 l-6 -97 -125
-33 c-216 -57 -698 -169 -880 -206 -366 -73 -641 -100 -790 -77 -140 21 -237
88 -295 202 -30 59 -145 326 -145 338 0 11 119 117 221 198 80 62 336 237 496
337 l92 57 54 -44 c106 -86 234 -128 330 -107 153 33 226 147 215 339 -17 287
-275 561 -528 561 -121 0 -218 -73 -252 -190 -17 -58 -14 -191 6 -254 8 -27
13 -53 11 -57 -3 -4 -62 -38 -132 -77 -334 -183 -454 -240 -642 -304 -102 -34
-116 -37 -124 -22 -5 9 -43 61 -86 115 -169 221 -211 301 -211 403 0 257 285
663 987 1403 l154 161 64 -29 c136 -61 286 -87 400 -69 417 66 464 548 92 928
-265 271 -657 363 -883 207 -195 -134 -206 -424 -27 -708 l18 -29 -165 -161
c-489 -479 -847 -785 -1052 -899 -115 -64 -177 -83 -273 -83 -71 0 -88 4 -145
32 -36 18 -151 97 -256 176 -105 79 -198 148 -208 154 -16 9 -14 18 19 118 44
129 85 230 158 386 64 135 234 459 251 476 8 8 28 8 81 -4 140 -30 292 4 370
82 183 183 6 520 -331 631 -77 25 -104 29 -199 29 -100 0 -116 -3 -173 -29
-196 -90 -216 -311 -46 -504 l46 -52 -83 -143 c-197 -340 -331 -540 -415 -622
-62 -61 -104 -78 -178 -73 -51 3 -91 18 -246 90 -102 47 -202 92 -222 99 l-38
13 -1 116 c-1 257 2 352 17 510 26 286 100 681 212 1140 l47 194 80 11 c216
31 369 126 438 272 27 59 32 79 32 148 0 95 -19 158 -76 246 -103 159 -287
278 -524 340 -128 33 -344 34 -458 1 -223 -64 -360 -202 -374 -375 -16 -191
142 -408 385 -531 28 -14 52 -30 52 -35 0 -28 -196 -691 -274 -926 -173 -520
-289 -735 -440 -813 -72 -36 -193 -41 -388 -13 -82 12 -168 21 -192 21 -24 0
-48 6 -54 13 -15 18 -58 223 -76 357 -20 148 -33 342 -42 603 l-7 208 22 6
c55 14 166 77 211 119 202 189 88 456 -227 530 -81 19 -271 14 -344 -10 -130
-41 -235 -116 -287 -205 -36 -61 -38 -174 -5 -237 47 -88 154 -165 281 -200
l62 -17 0 -176 c0 -228 -16 -527 -35 -666 -19 -141 -59 -305 -76 -316 -8 -5
-29 -9 -47 -9 -19 0 -95 -9 -170 -21 -185 -28 -305 -24 -385 13 -221 103 -420
494 -682 1338 -60 193 -165 553 -165 564 0 3 32 26 71 51 137 88 241 218 281
348 72 237 -92 462 -380 522 -91 19 -283 18 -372 -1z"/>
<path d="M743 4160 c-471 -59 -688 -297 -734 -805 -6 -68 -9 -590 -7 -1375 4
-1374 1 -1294 58 -1466 63 -189 216 -341 416 -413 169 -61 216 -66 674 -66
443 0 518 6 689 50 304 80 462 272 510 620 17 122 24 382 16 628 l-7 237 -449
0 -449 0 0 -341 c0 -390 0 -391 -79 -437 -43 -25 -53 -27 -166 -27 -110 0
-124 2 -164 25 -88 50 -81 -64 -81 1302 0 1367 -6 1266 79 1316 43 25 53 27
171 27 138 0 171 -11 214 -68 20 -27 21 -41 24 -328 l3 -299 455 0 456 0 -4
438 c-4 408 -6 442 -26 515 -74 268 -258 397 -649 453 -127 19 -832 28 -950
14z"/>
<path d="M3760 4159 c-504 -44 -774 -203 -868 -509 -42 -138 -43 -191 -40
-1615 4 -1229 6 -1366 21 -1427 89 -358 334 -519 870 -569 171 -16 646 -7 782
15 299 48 502 144 612 291 58 77 77 114 110 222 l28 88 0 1435 0 1435 -22 81
c-85 319 -308 477 -762 540 -129 18 -584 26 -731 13z m467 -706 c20 -10 46
-31 57 -46 21 -28 21 -33 24 -1298 3 -1416 7 -1315 -67 -1361 -30 -19 -53 -23
-146 -26 -179 -6 -244 24 -265 121 -8 37 -10 401 -8 1287 3 1140 4 1237 20
1266 35 64 100 85 250 80 69 -3 108 -10 135 -23z"/>
<path d="M18835 4164 c-356 -26 -523 -76 -648 -194 -146 -137 -205 -341 -228
-792 -14 -259 -5 -740 15 -891 44 -322 136 -457 359 -532 132 -44 256 -57 492
-53 185 4 218 7 274 27 105 36 178 98 258 214 18 26 37 47 43 47 14 0 14
-1121 -1 -1175 -15 -52 -65 -100 -120 -115 -24 -7 -95 -12 -157 -12 -126 1
-169 15 -206 65 -20 27 -21 44 -24 283 l-4 254 -450 0 -450 0 5 -393 c3 -318
7 -404 20 -453 76 -288 248 -383 747 -414 211 -13 412 -13 620 0 394 25 589
87 725 231 147 156 219 398 245 824 13 228 13 2280 0 2414 -43 419 -222 583
-704 647 -106 14 -691 27 -811 18z m502 -683 c81 -41 78 -18 81 -528 2 -298
-1 -467 -8 -493 -24 -90 -92 -130 -237 -138 -161 -8 -240 27 -268 120 -12 43
-15 126 -15 497 0 405 2 449 18 480 36 73 96 92 272 87 94 -2 123 -7 157 -25z"/>
<path d="M5660 4119 c0 -17 530 -4002 535 -4026 l5 -23 794 0 794 0 6 27 c3
16 125 914 271 1998 145 1084 267 1985 270 2003 l6 32 -479 0 -480 0 -6 -42
c-3 -24 -87 -817 -186 -1763 -100 -946 -184 -1731 -187 -1745 l-6 -25 -8 30
c-8 27 -369 3484 -369 3528 0 16 -30 17 -480 17 -329 0 -480 -3 -480 -11z"/>
<path d="M8790 2100 l0 -2030 465 0 465 0 0 2030 0 2030 -465 0 -465 0 0
-2030z"/>
<path d="M10350 2099 l0 -2030 783 4 c648 3 796 7 862 20 230 44 343 94 449
200 39 40 87 100 108 135 74 129 129 348 159 637 16 160 24 1515 10 1812 -46
954 -228 1198 -928 1243 -87 5 -447 10 -800 10 l-643 0 0 -2031z m1330 1309
c55 -28 85 -78 100 -168 8 -46 10 -387 8 -1170 l-3 -1105 -30 -60 c-47 -94
-62 -99 -282 -103 l-183 -4 0 1316 0 1316 173 0 c159 0 176 -2 217 -22z"/>
<path d="M15853 4108 c-11 -13 -208 -265 -437 -561 l-418 -538 184 -177 c269
-260 318 -306 322 -301 2 2 139 208 303 457 165 249 302 449 306 445 4 -3 7
-762 7 -1685 l0 -1678 465 0 465 0 0 2030 0 2030 -588 0 -589 0 -20 -22z"/>
<path d="M13230 1555 l0 -365 735 0 735 0 0 365 0 365 -735 0 -735 0 0 -365z"/>
</g>
</svg>
