<?xml version="1.0" standalone="no"?>
<!DOCTYPE svg PUBLIC "-//W3C//DTD SVG 20010904//EN"
 "http://www.w3.org/TR/2001/REC-SVG-20010904/DTD/svg10.dtd">
<svg version="1.0" xmlns="http://www.w3.org/2000/svg"
 width="500.000000pt" height="333.000000pt" viewBox="0 0 500.000000 333.000000"
 preserveAspectRatio="xMidYMid meet">

<g transform="translate(0.000000,333.000000) scale(0.100000,-0.100000)"
fill="#000000" stroke="none">
<path d="M804 2965 c15 -30 81 -179 171 -390 25 -60 57 -132 70 -160 13 -27
35 -79 50 -115 28 -68 60 -141 75 -175 5 -11 38 -87 73 -170 35 -82 70 -163
78 -178 l15 -28 25 19 24 20 -184 459 c-102 252 -195 481 -207 508 -14 31 -58
86 -114 145 -55 57 -85 83 -76 65z"/>
<path d="M3884 2725 c-9 -23 10 -40 25 -22 9 11 8 17 -4 27 -12 10 -16 9 -21
-5z"/>
<path d="M2970 2721 c0 -7 -4 -9 -10 -6 -5 3 -10 1 -10 -4 0 -6 4 -11 9 -11
13 0 25 20 17 27 -3 4 -6 1 -6 -6z"/>
<path d="M2890 2691 c-13 -25 -13 -58 1 -66 15 -10 17 -5 25 43 7 45 -7 58
-26 23z"/>
<path d="M3931 2676 c-8 -9 -11 -19 -7 -23 9 -9 29 13 24 27 -2 8 -8 7 -17 -4z"/>
<path d="M2960 2635 c0 -15 40 -58 48 -51 6 6 -31 66 -40 66 -4 0 -8 -7 -8
-15z"/>
<path d="M3862 2638 c-16 -16 -15 -60 2 -84 17 -23 23 -18 26 21 5 73 -2 89
-28 63z"/>
<path d="M3964 2615 c-7 -29 3 -56 24 -63 22 -7 25 46 3 69 l-20 22 -7 -28z"/>
<path d="M1825 2531 c-69 -64 -129 -111 -174 -135 -76 -40 -111 -75 -111 -113
0 -13 22 -70 48 -126 35 -74 55 -105 74 -114 14 -6 29 -9 32 -6 3 4 6 31 6 61
0 44 5 60 26 85 23 28 26 37 22 101 l-3 69 80 29 c50 19 106 31 148 33 38 2
75 10 84 16 23 20 53 85 53 117 0 59 -42 64 -109 13 l-34 -25 8 32 c7 35 -6
62 -31 62 -8 0 -62 -44 -119 -99z"/>
<path d="M2911 2576 c2 -10 15 -26 28 -34 22 -15 23 -15 20 2 -2 10 -15 26
-28 34 -22 15 -23 15 -20 -2z"/>
<path d="M2998 2553 c7 -3 16 -2 19 1 4 3 -2 6 -13 5 -11 0 -14 -3 -6 -6z"/>
<path d="M3063 2548 c-23 -11 -31 -28 -14 -28 10 0 41 28 41 36 0 5 0 5 -27
-8z"/>
<path d="M4052 2538 c5 -15 28 -23 28 -10 0 5 -7 13 -16 16 -10 4 -14 1 -12
-6z"/>
<path d="M2985 2520 c-3 -5 3 -10 15 -10 12 0 18 5 15 10 -3 6 -10 10 -15 10
-5 0 -12 -4 -15 -10z"/>
<path d="M3940 2516 c0 -9 7 -19 15 -23 25 -9 27 2 5 22 -18 17 -20 17 -20 1z"/>
<path d="M2425 2417 l-280 -102 3 -62 c5 -89 -5 -134 -38 -170 -16 -17 -35
-33 -41 -35 -8 -3 -2 -30 20 -88 17 -47 65 -177 105 -290 41 -113 77 -213 81
-222 6 -16 1 -18 -39 -18 -28 0 -50 6 -58 15 -7 8 -25 28 -40 45 -16 16 -28
39 -28 50 0 11 -5 20 -10 20 -6 0 -16 11 -22 25 -9 19 -19 25 -43 25 l-32 0
16 69 c9 37 22 75 29 83 11 13 9 17 -13 22 -16 4 -25 13 -25 26 0 24 3 24 -48
6 -46 -17 -72 -12 -125 21 -51 32 -59 21 -17 -22 40 -41 88 -59 141 -52 22 3
39 2 39 -1 0 -19 -44 -90 -67 -106 -38 -28 -119 -32 -163 -9 -54 28 -83 78
-77 136 4 43 2 47 -17 46 -28 0 -166 -25 -170 -30 -1 -2 -18 -26 -36 -53 -36
-53 -30 -69 21 -59 24 4 31 0 49 -28 33 -54 36 -80 12 -99 -20 -17 -21 -19 -5
-69 16 -48 16 -53 0 -80 -16 -27 -16 -31 7 -86 17 -43 31 -61 52 -70 41 -17
56 -39 56 -82 0 -73 -82 -108 -139 -59 -23 20 -27 32 -28 72 0 52 -49 158 -69
151 -6 -2 -68 -86 -137 -188 -123 -178 -127 -187 -148 -276 -26 -113 -26 -119
-1 -192 18 -55 18 -62 4 -103 -10 -31 -14 -74 -12 -139 l3 -93 90 -48 c90 -47
227 -96 340 -120 95 -20 353 -17 450 6 139 32 130 12 79 183 -24 81 -44 155
-44 164 0 9 9 36 20 60 24 54 25 115 3 171 -35 85 -25 150 56 386 50 142 78
212 88 212 8 0 34 -5 57 -11 41 -10 47 -16 97 -102 64 -107 177 -227 265 -280
70 -42 230 -98 289 -100 l40 -2 5 51 c6 58 34 107 58 102 12 -2 17 -14 18 -38
0 -18 5 -35 10 -37 10 -3 74 78 74 94 0 4 -5 0 -11 -9 -5 -10 -17 -18 -24 -18
-26 0 -17 48 15 82 28 31 31 32 44 15 13 -16 15 -15 25 14 14 42 14 42 -10 28
-55 -29 -42 45 14 80 42 26 47 47 47 187 0 98 -1 103 -22 109 -35 11 -78 56
-78 82 0 25 11 29 41 13 30 -17 38 -4 26 42 -12 52 -24 69 -43 61 -16 -6 -19
-33 -4 -33 6 0 10 -7 10 -15 0 -24 -37 -17 -59 11 -25 31 -27 64 -6 64 8 0 15
-4 15 -10 0 -13 27 -13 34 -1 4 5 -2 23 -11 40 -15 25 -25 31 -51 31 -32 0
-33 -1 -27 -30 5 -22 3 -30 -8 -30 -36 0 -71 86 -44 109 12 9 18 6 31 -14 16
-24 18 -25 39 -8 19 14 22 23 17 57 -6 44 -25 58 -35 26 -11 -34 -30 -17 -30
26 0 29 4 40 18 42 12 2 17 -3 17 -17 0 -24 15 -28 24 -6 8 21 -30 105 -48
105 -7 0 -17 -11 -20 -25 -9 -34 -43 -34 -52 0 -4 17 2 43 20 79 14 29 26 56
26 59 0 3 -14 44 -31 91 l-31 86 -41 0 c-58 0 -115 37 -157 104 -19 30 -37 55
-40 55 -3 0 -131 -46 -285 -102z m355 -475 c14 -39 28 -74 32 -77 3 -3 30 3
59 14 29 12 57 17 61 13 8 -8 48 -119 48 -133 0 -4 -22 -15 -50 -24 -27 -9
-52 -21 -56 -26 -3 -6 7 -44 22 -85 15 -41 25 -76 23 -78 -2 -2 -44 -17 -92
-34 l-88 -32 -10 28 c-6 15 -20 51 -31 80 -11 28 -21 52 -22 52 -2 0 -29 -9
-60 -20 l-57 -19 -20 47 c-39 89 -37 97 17 117 27 10 53 22 58 26 5 4 -4 41
-19 84 -15 41 -26 77 -24 79 11 9 165 64 173 62 6 -1 22 -34 36 -74z"/>
<path d="M3880 2501 c0 -15 38 -56 45 -49 9 9 -11 44 -30 52 -8 3 -15 2 -15
-3z"/>
<path d="M4080 2495 c-7 -9 -10 -18 -6 -22 9 -10 59 10 64 25 6 18 -43 15 -58
-3z"/>
<path d="M4126 2454 c-27 -19 -13 -30 14 -11 12 8 18 17 13 20 -4 3 -17 -1
-27 -9z"/>
<path d="M3965 2449 c-8 -12 36 -39 63 -39 19 0 42 24 31 34 -9 8 -90 13 -94
5z"/>
<path d="M2038 2299 c-32 -18 -19 -29 32 -29 52 0 64 12 31 30 -24 12 -41 12
-63 -1z"/>
<path d="M1803 2246 c-41 -35 -23 -41 47 -15 41 15 57 25 48 30 -24 16 -67 9
-95 -15z"/>
<path d="M2070 2211 c0 -12 6 -21 16 -21 9 0 14 7 12 17 -5 25 -28 28 -28 4z"/>
<path d="M1865 2181 c-8 -15 3 -31 21 -31 9 0 14 7 12 17 -4 20 -24 28 -33 14z"/>
<path d="M3189 2108 c-1 -2 -3 -16 -5 -33 -3 -28 -2 -29 12 -11 16 23 19 46 4
46 -5 0 -11 -1 -11 -2z"/>
<path d="M3234 2035 c-6 -36 -1 -65 14 -65 4 0 15 13 25 29 16 27 16 30 -2 50
-25 28 -29 27 -37 -14z"/>
<path d="M3160 1951 c-5 -11 -10 -38 -10 -61 0 -34 6 -48 34 -76 37 -37 54
-42 62 -19 7 16 -13 76 -46 148 -16 32 -26 34 -40 8z"/>
<path d="M3316 1908 c8 -27 1 -21 48 -52 37 -25 96 -36 96 -17 0 16 -106 91
-129 91 -19 0 -21 -4 -15 -22z"/>
<path d="M3270 1861 c0 -15 38 -56 45 -49 9 9 -21 58 -35 58 -6 0 -10 -4 -10
-9z"/>
<path d="M3487 1794 c-15 -8 -27 -17 -27 -19 0 -10 37 -4 55 8 26 20 5 28 -28
11z"/>
<path d="M3290 1751 c0 -13 15 -27 46 -41 37 -19 50 -21 70 -11 32 14 23 28
-33 52 -58 25 -83 25 -83 0z"/>
<path d="M3489 1721 c-13 -11 -21 -23 -16 -27 9 -9 77 22 77 36 0 17 -36 11
-61 -9z"/>
<path d="M4076 1613 c-9 -9 -7 -43 2 -43 10 0 32 21 32 31 0 10 -27 19 -34 12z"/>
<path d="M4410 1611 c0 -6 4 -13 10 -16 6 -3 7 1 4 9 -7 18 -14 21 -14 7z"/>
<path d="M1114 1497 c-40 -62 -67 -115 -62 -118 6 -4 7 -16 4 -27 -6 -19 11
-73 23 -71 3 0 53 44 110 99 l104 98 -21 53 c-12 28 -22 58 -22 65 0 9 -12 14
-32 14 -31 0 -37 -7 -104 -113z"/>
<path d="M4037 1543 c-11 -10 -8 -63 3 -63 6 0 10 16 10 35 0 36 -2 40 -13 28z"/>
<path d="M4150 1515 c0 -8 7 -15 16 -15 14 0 14 3 4 15 -7 8 -14 15 -16 15 -2
0 -4 -7 -4 -15z"/>
<path d="M4090 1494 c0 -14 4 -23 10 -19 6 3 10 15 10 26 0 10 -4 19 -10 19
-5 0 -10 -12 -10 -26z"/>
<path d="M4184 1449 c-9 -15 13 -34 55 -48 42 -14 61 -14 61 -1 0 6 -6 10 -14
10 -7 0 -22 11 -32 25 -19 26 -58 33 -70 14z"/>
<path d="M4060 1428 c0 -27 30 -68 50 -68 19 0 10 30 -20 62 l-29 33 -1 -27z"/>
<path d="M4152 1393 c4 -22 54 -47 76 -38 14 5 9 11 -23 31 -48 29 -58 30 -53
7z"/>
<path d="M4150 1335 c0 -10 41 -25 52 -19 8 5 5 10 -8 15 -22 9 -44 11 -44 4z"/>
<path d="M4293 1330 c-13 -5 -23 -14 -23 -20 0 -14 43 -13 58 2 26 26 8 35
-35 18z"/>
<path d="M3243 1004 c-3 -8 -3 -20 0 -28 7 -17 54 -9 61 11 3 8 1 11 -4 8 -6
-3 -10 -2 -10 3 0 16 -41 22 -47 6z"/>
<path d="M3317 943 c-4 -3 -7 -15 -7 -25 0 -26 24 -17 28 10 3 21 -8 29 -21
15z"/>
<path d="M3227 896 c-33 -33 -34 -98 -2 -140 12 -16 18 -17 28 -7 14 14 15
119 0 145 -9 16 -11 16 -26 2z"/>
<path d="M3367 874 c-4 -4 -7 -24 -7 -44 0 -69 49 -95 64 -34 6 22 2 33 -21
56 -16 16 -32 25 -36 22z"/>
<path d="M3480 745 c0 -20 25 -30 48 -20 16 8 16 8 0 12 -10 3 -18 9 -18 14 0
5 -7 9 -15 9 -8 0 -15 -7 -15 -15z"/>
<path d="M3320 728 c0 -21 29 -58 46 -58 24 0 11 28 -28 59 -15 11 -18 11 -18
-1z"/>
<path d="M3240 682 c0 -23 40 -62 63 -62 25 0 21 18 -12 51 -34 33 -51 37 -51
11z"/>
<path d="M3522 684 c-29 -20 -20 -34 23 -34 39 0 75 28 53 41 -20 13 -51 11
-76 -7z"/>
<path d="M3589 621 c-27 -22 -21 -36 10 -26 26 8 49 45 27 45 -7 0 -24 -9 -37
-19z"/>
<path d="M3365 620 c-19 -31 76 -68 119 -48 15 6 25 16 23 22 -8 26 -129 47
-142 26z"/>
</g>
</svg>
