<?xml version="1.0" standalone="no"?>
<!DOCTYPE svg PUBLIC "-//W3C//DTD SVG 20010904//EN"
 "http://www.w3.org/TR/2001/REC-SVG-20010904/DTD/svg10.dtd">
<svg version="1.0" xmlns="http://www.w3.org/2000/svg"
 width="626.000000pt" height="626.000000pt" viewBox="0 0 626.000000 626.000000"
 preserveAspectRatio="xMidYMid meet">

<g transform="translate(0.000000,626.000000) scale(0.100000,-0.100000)"
fill="#000000" stroke="none">
<path d="M3308 6048 c9 -9 15 -9 24 0 9 9 7 12 -12 12 -19 0 -21 -3 -12 -12z"/>
<path d="M3220 6020 c0 -5 4 -10 9 -10 18 0 21 -33 4 -46 -16 -12 -21 -10 -45
15 -14 16 -29 27 -32 24 -10 -11 -7 -23 7 -23 7 0 18 -9 24 -19 10 -16 9 -24
-6 -43 -18 -22 -20 -22 -38 -5 -11 9 -23 14 -26 10 -13 -12 -7 -22 16 -25 28
-4 38 -48 10 -48 -16 -1 -16 -2 -3 -13 25 -19 19 -61 -7 -65 -23 -3 -29 -13
-17 -25 4 -3 13 0 21 8 19 20 26 19 41 -5 11 -18 9 -24 -13 -46 -15 -14 -24
-28 -21 -31 3 -3 16 7 29 22 21 25 25 26 45 14 12 -8 22 -20 22 -28 0 -11 3
-12 11 -4 15 15 39 5 49 -21 l9 -21 0 21 c1 29 41 40 59 17 6 -9 12 -23 12
-30 0 -7 5 -13 10 -13 13 0 13 6 -2 29 -12 20 -5 51 12 51 6 0 22 -12 37 -26
14 -14 28 -22 31 -19 4 4 -1 11 -10 16 -41 23 -45 79 -7 79 17 0 18 3 7 20
-17 27 4 43 50 36 22 -3 32 -1 32 9 0 8 -7 11 -20 8 -54 -14 -90 23 -52 54 16
13 15 14 -5 10 -14 -3 -24 1 -28 11 -7 20 21 62 42 62 12 0 14 3 6 11 -7 7
-18 3 -36 -15 -30 -30 -40 -32 -57 -11 -13 15 -5 55 11 55 6 0 7 5 4 10 -10
16 -25 11 -25 -8 0 -10 -5 -23 -11 -29 -14 -14 -39 -6 -39 13 0 8 -4 14 -10
14 -5 0 -10 -7 -10 -16 0 -26 -54 -14 -58 14 -3 21 -32 32 -32 12z m175 -123
c-9 -5 -19 -6 -22 -3 -4 3 -1 6 5 6 7 0 12 4 12 9 0 16 -38 0 -65 -26 -31 -32
-33 -23 -2 10 26 28 56 38 75 23 11 -8 10 -11 -3 -19z m-182 8 c-3 -9 -8 -14
-10 -11 -3 3 -2 9 2 15 9 16 15 13 8 -4z m42 -5 c3 -6 -1 -7 -9 -4 -18 7 -21
14 -7 14 6 0 13 -4 16 -10z m-51 -42 c-3 -4 0 -8 5 -8 6 0 11 -7 11 -15 0 -17
-6 -18 -35 -5 -19 8 -19 9 -1 9 14 1 16 4 7 14 -8 10 -7 14 4 14 8 0 12 -4 9
-9z m219 -1 c7 3 8 2 4 -2 -14 -16 -36 -14 -29 3 4 10 7 12 10 4 2 -7 9 -9 15
-5z m-7 -69 c4 -7 4 -10 -1 -6 -4 4 -16 -3 -27 -15 l-19 -22 17 28 c19 31 20
32 30 15z m-101 -7 c3 -5 1 -12 -5 -16 -5 -3 -10 1 -10 9 0 18 6 21 15 7z
m-71 -60 c-2 -3 -12 3 -22 13 -16 17 -16 18 5 5 12 -7 20 -15 17 -18z m156 24
c0 -2 -9 -9 -19 -15 -14 -7 -22 -7 -27 2 -4 6 -3 8 2 5 6 -3 16 -2 24 4 17 10
20 11 20 4z m-70 -15 c13 -8 13 -10 -2 -10 -9 0 -20 5 -23 10 -8 13 5 13 25 0z
m-40 -4 c0 -2 -7 -6 -15 -10 -8 -3 -15 -1 -15 4 0 6 7 10 15 10 8 0 15 -2 15
-4z"/>
<path d="M3490 5910 c0 -5 5 -10 10 -10 6 0 10 5 10 10 0 6 -4 10 -10 10 -5 0
-10 -4 -10 -10z"/>
<path d="M5768 5898 c9 -9 15 -9 24 0 9 9 7 12 -12 12 -19 0 -21 -3 -12 -12z"/>
<path d="M5680 5874 c0 -3 7 -12 15 -20 20 -20 19 -31 -4 -44 -13 -7 -22 -7
-26 0 -3 5 -11 10 -17 10 -7 0 -7 -4 1 -14 16 -19 -17 -60 -42 -51 -9 4 -17
11 -17 17 0 5 -4 6 -10 3 -17 -11 -11 -23 13 -27 26 -4 38 -48 12 -48 -14 0
-14 -2 1 -25 19 -30 12 -55 -16 -55 -21 0 -27 -14 -10 -25 6 -3 10 -2 10 3 0
19 37 19 49 0 10 -15 7 -23 -14 -44 -15 -14 -24 -28 -21 -31 3 -3 16 7 29 22
21 25 25 26 45 14 12 -8 22 -20 22 -28 0 -11 3 -12 11 -4 15 15 39 5 49 -21
l9 -21 0 21 c1 29 41 40 59 17 7 -10 10 -23 8 -30 -3 -7 -1 -13 4 -13 14 0 21
18 10 25 -16 10 -12 45 7 52 11 4 24 -3 40 -21 13 -16 27 -25 31 -21 4 3 -1
11 -10 16 -41 23 -45 79 -7 79 17 0 18 3 7 20 -17 27 4 43 50 36 22 -3 32 -1
32 9 0 8 -7 11 -20 8 -11 -3 -31 -2 -45 1 -29 8 -34 39 -7 56 15 10 15 11 -5
7 -13 -3 -24 1 -27 10 -8 19 22 63 42 63 11 0 13 3 5 11 -7 7 -18 3 -36 -15
-30 -30 -40 -32 -57 -11 -13 15 -5 55 11 55 6 0 7 5 4 10 -10 16 -25 11 -25
-8 0 -10 -5 -23 -11 -29 -14 -14 -39 -6 -39 13 0 8 -4 14 -10 14 -5 0 -10 -7
-10 -15 0 -22 -47 -19 -59 4 -6 10 -7 21 -4 25 3 3 -1 6 -10 6 -9 0 -17 -3
-17 -6z m153 -87 c4 3 7 3 7 0 0 -3 -8 -11 -18 -16 -14 -7 -18 -6 -18 9 0 13
4 16 12 10 6 -6 14 -7 17 -3z m30 -27 c3 -11 2 -22 -2 -24 -4 -3 -8 6 -9 20
-2 29 4 31 11 4z m-91 -37 c-6 -2 -9 -10 -6 -15 4 -7 2 -8 -5 -4 -13 9 -5 26
12 25 9 0 8 -2 -1 -6z m111 -9 c-3 -9 0 -19 6 -24 10 -5 9 -8 -1 -13 -10 -3
-15 4 -16 24 -1 16 2 29 8 29 5 0 7 -7 3 -16z m4 -70 c2 -6 -8 -16 -22 -22
-22 -10 -25 -9 -25 9 0 17 3 19 14 10 9 -7 17 -8 20 -2 3 5 1 12 -4 14 -6 3
-5 4 2 3 6 -1 13 -7 15 -12z m-67 -8 c0 -2 -7 -7 -16 -10 -8 -3 -12 -2 -9 4 6
10 25 14 25 6z m-145 -32 c9 -15 12 -23 6 -20 -11 7 -35 46 -28 46 3 0 12 -12
22 -26z m101 -51 c-3 -4 -6 -1 -6 6 0 8 -8 10 -22 6 -23 -7 -23 -7 -3 8 18 14
21 14 28 0 5 -8 6 -17 3 -20z m40 10 c-10 -10 -19 5 -10 18 6 11 8 11 12 0 2
-7 1 -15 -2 -18z"/>
<path d="M5615 5850 c-8 -13 -1 -24 14 -19 6 3 7 10 2 18 -6 10 -10 10 -16 1z"/>
<path d="M3080 5840 c0 -5 5 -10 10 -10 6 0 10 5 10 10 0 6 -4 10 -10 10 -5 0
-10 -4 -10 -10z"/>
<path d="M4413 5833 c-21 -8 -15 -34 12 -59 31 -28 33 -72 7 -164 l-19 -65
-64 -6 c-35 -4 -72 -9 -82 -10 -13 -3 -28 12 -54 54 -34 55 -36 59 -24 97 19
64 0 75 -69 40 -21 -11 -42 -24 -45 -30 -9 -15 12 -38 38 -42 26 -4 54 -50 63
-104 l6 -41 -57 -33 c-57 -33 -58 -33 -90 -16 -18 10 -50 32 -71 49 -25 21
-47 31 -63 29 -22 -2 -24 -1 -8 8 9 6 17 16 17 21 0 6 -10 3 -22 -5 -32 -23
-47 -20 -59 11 -8 22 -12 24 -19 13 -22 -34 -12 -50 31 -50 35 0 47 -6 74 -36
18 -20 43 -55 56 -78 l22 -42 -44 -56 c-24 -30 -49 -63 -54 -73 -10 -17 -14
-17 -68 -1 -47 14 -62 23 -79 51 -27 47 -52 45 -72 -5 -30 -75 -18 -102 35
-75 34 18 68 11 118 -24 l29 -21 -18 -67 c-16 -62 -20 -69 -51 -80 -19 -7 -58
-12 -88 -12 -43 -1 -61 4 -88 25 -47 35 -63 26 -63 -35 0 -85 22 -104 66 -56
27 29 69 32 149 12 l50 -13 11 -65 c6 -35 14 -76 18 -91 7 -23 3 -30 -33 -53
-43 -29 -67 -33 -119 -21 -25 6 -33 4 -38 -9 -7 -18 21 -89 43 -106 17 -15 43
5 43 32 0 23 49 55 99 64 28 5 38 3 46 -10 5 -10 23 -37 38 -61 l29 -44 -31
-48 c-45 -70 -75 -95 -124 -101 -33 -5 -43 -11 -45 -27 -4 -25 58 -84 88 -84
17 0 20 7 20 41 0 34 6 47 33 73 19 17 53 42 78 55 l44 23 73 -48 c39 -26 72
-52 72 -59 0 -6 -7 -35 -15 -63 -13 -42 -24 -57 -55 -77 -47 -30 -44 -47 11
-69 74 -30 98 -16 71 41 -14 29 -13 34 7 75 40 80 40 80 113 68 l65 -11 11
-63 c18 -98 15 -133 -14 -172 -36 -47 -27 -64 35 -64 86 0 102 18 56 64 -30
30 -32 80 -7 171 l17 59 75 18 75 17 23 -27 c12 -15 31 -45 42 -67 16 -34 18
-47 9 -78 -17 -61 3 -72 71 -37 21 11 42 24 45 30 9 15 -14 40 -36 40 -26 0
-51 43 -65 113 -7 34 -12 62 -11 62 1 0 21 13 44 28 24 15 46 27 51 27 12 0
144 -93 162 -114 7 -10 16 -36 19 -59 5 -33 11 -43 27 -45 25 -4 84 58 84 88
0 16 -7 20 -39 20 -50 0 -77 23 -125 103 -23 39 -43 64 -50 61 -17 -6 -40 49
-33 76 6 22 -3 26 -20 9 -9 -9 -10 -7 -6 10 3 11 1 27 -4 34 -7 8 -3 18 10 31
19 18 20 18 14 2 -6 -14 -3 -17 9 -12 13 5 15 1 12 -19 -5 -25 -5 -25 13 -9
25 23 115 23 192 0 47 -14 61 -23 82 -56 30 -47 47 -44 69 11 30 74 16 98 -40
71 -30 -14 -35 -13 -90 13 -33 16 -63 27 -69 26 -5 -2 -7 1 -3 5 4 4 0 12 -9
19 -14 10 -14 18 -4 62 12 48 15 52 54 61 23 6 65 14 92 17 38 5 51 11 52 24
1 14 -14 21 -65 34 -112 26 -122 32 -122 69 0 18 -4 47 -9 65 -9 31 -8 33 55
73 66 44 87 49 142 36 25 -6 33 -4 38 9 7 18 -21 89 -43 106 -17 15 -43 -5
-43 -32 0 -27 -52 -55 -123 -68 -33 -6 -61 -10 -62 -8 0 1 -13 21 -28 45 l-28
43 45 67 c60 90 88 115 139 121 33 5 43 11 45 27 4 25 -58 84 -88 84 -17 0
-20 -7 -20 -41 0 -35 -6 -47 -36 -74 -20 -18 -62 -47 -94 -64 l-59 -32 -53 41
c-29 22 -56 40 -61 40 -8 0 -4 24 19 108 12 43 22 57 49 74 47 27 45 52 -5 72
-75 30 -102 18 -75 -35 19 -37 12 -66 -34 -133 l-31 -44 -57 17 c-58 17 -58
18 -70 67 -20 89 -16 151 13 190 37 48 27 64 -38 63 -29 0 -59 -3 -65 -6z
m-140 -410 c-7 -2 -19 -2 -25 0 -7 3 -2 5 12 5 14 0 19 -2 13 -5z m377 -65 c0
-31 -26 -47 -64 -38 -19 4 -37 5 -40 2 -4 -3 -6 0 -6 6 0 6 5 14 10 17 13 8
13 45 -1 45 -5 0 -7 5 -3 11 4 8 8 8 13 1 5 -8 14 -7 31 2 22 11 27 11 42 -8
10 -12 18 -29 18 -38z m-123 -20 c-3 -8 -6 -5 -6 6 -1 11 2 17 5 13 3 -3 4
-12 1 -19z m-442 -8 c3 -5 -1 -10 -10 -10 -9 0 -13 5 -10 10 3 6 8 10 10 10 2
0 7 -4 10 -10z m675 -12 c0 -6 -6 -5 -15 2 -8 7 -15 14 -15 16 0 2 7 1 15 -2
8 -4 15 -11 15 -16z m-233 -60 c-3 -8 -6 -5 -6 6 -1 11 2 17 5 13 3 -3 4 -12
1 -19z m-267 -39 c15 -28 5 -23 -15 7 -9 15 -12 23 -6 20 6 -4 16 -16 21 -27z
m250 6 c14 -19 14 -19 -2 -6 -10 7 -18 18 -18 24 0 6 1 8 3 6 1 -2 9 -13 17
-24z m329 3 c10 -18 11 -20 0 -10 -19 17 -29 15 -23 -5 5 -14 4 -15 -4 -4 -10
14 -6 41 7 41 3 0 12 -10 20 -22z m-359 -2 c0 -2 -8 -10 -17 -17 -16 -13 -17
-12 -4 4 13 16 21 21 21 13z m-517 -41 c-3 -9 -8 -14 -10 -11 -3 3 -2 9 2 15
9 16 15 13 8 -4z m517 11 c0 -2 -12 -11 -27 -20 l-28 -17 24 20 c23 21 31 25
31 17z m-265 -16 c3 -5 1 -10 -4 -10 -6 0 -11 5 -11 10 0 6 2 10 4 10 3 0 8
-4 11 -10z m215 6 c0 -2 -7 -7 -16 -10 -8 -3 -12 -2 -9 4 6 10 25 14 25 6z
m207 -2 c-3 -3 -12 -4 -19 -1 -8 3 -5 6 6 6 11 1 17 -2 13 -5z m68 -14 c3 -5
2 -10 -4 -10 -5 0 -13 5 -16 10 -3 6 -2 10 4 10 5 0 13 -4 16 -10z m-225 -32
c10 -21 10 -21 -3 -5 -9 11 -22 15 -33 11 -16 -5 -16 -4 -4 5 22 15 28 14 40
-11z m-198 -23 c9 4 19 2 23 -4 3 -6 0 -9 -8 -5 -8 3 -18 0 -22 -6 -6 -9 -10
-9 -16 1 -5 8 -9 19 -9 24 0 6 4 4 8 -3 5 -7 16 -10 24 -7z m135 -27 c-3 -8
-6 -5 -6 6 -1 11 2 17 5 13 3 -3 4 -12 1 -19z m-267 -2 c0 -2 -8 -10 -17 -17
-16 -13 -17 -12 -4 4 13 16 21 21 21 13z m308 -22 c-12 -12 -17 -13 -23 -3 -5
8 -4 10 4 5 6 -4 14 0 17 9 4 9 9 13 12 10 3 -3 -1 -13 -10 -21z m-261 -56
c-3 -8 -6 -5 -6 6 -1 11 2 17 5 13 3 -3 4 -12 1 -19z m573 18 c0 -2 -7 -6 -15
-10 -8 -3 -15 -1 -15 4 0 6 7 10 15 10 8 0 15 -2 15 -4z m-853 -28 c-3 -8 -6
-5 -6 6 -1 11 2 17 5 13 3 -3 4 -12 1 -19z m254 -21 c-10 -9 -11 -8 -5 6 3 10
9 15 12 12 3 -3 0 -11 -7 -18z m257 -22 c-3 -3 -9 2 -12 12 -6 14 -5 15 5 6 7
-7 10 -15 7 -18z m328 13 c4 -7 4 -10 -1 -6 -4 4 -14 0 -22 -10 -13 -15 -13
-15 -3 6 12 25 16 27 26 10z m74 -28 c0 -5 -5 -10 -11 -10 -5 0 -7 5 -4 10 3
6 8 10 11 10 2 0 4 -4 4 -10z m17 -12 c-3 -8 -6 -5 -6 6 -1 11 2 17 5 13 3 -3
4 -12 1 -19z m30 -10 c-3 -7 -5 -2 -5 12 0 14 2 19 5 13 2 -7 2 -19 0 -25z
m-177 8 c0 -2 -8 -10 -17 -17 -16 -13 -17 -12 -4 4 13 16 21 21 21 13z m197
-18 c-3 -8 -6 -5 -6 6 -1 11 2 17 5 13 3 -3 4 -12 1 -19z m-556 -41 c-10 -9
-11 -8 -5 6 3 10 9 15 12 12 3 -3 0 -11 -7 -18z m369 9 c0 -3 -4 -8 -10 -11
-5 -3 -10 -1 -10 4 0 6 5 11 10 11 6 0 10 -2 10 -4z m-393 -30 c0 -8 -6 -12
-15 -9 -11 5 -11 7 0 14 7 5 13 9 14 9 0 0 1 -6 1 -14z m340 -18 c-3 -8 -6 -5
-6 6 -1 11 2 17 5 13 3 -3 4 -12 1 -19z m132 1 c-16 -10 -23 -4 -14 10 3 6 11
8 17 5 6 -4 5 -9 -3 -15z m-445 -5 c3 -8 2 -12 -4 -9 -6 3 -10 10 -10 16 0 14
7 11 14 -7z m-33 -11 c13 -16 12 -17 -3 -4 -17 13 -22 21 -14 21 2 0 10 -8 17
-17z m119 -23 c8 -5 11 -10 5 -10 -5 0 -17 5 -25 10 -8 5 -10 10 -5 10 6 0 17
-5 25 -10z m-37 -40 c3 -11 1 -23 -4 -26 -5 -3 -9 6 -9 20 0 31 6 34 13 6z
m153 11 c-4 -5 -3 -11 1 -14 5 -2 2 -2 -5 0 -8 1 -21 3 -30 4 -14 0 -13 2 3 9
27 12 37 12 31 1z m-576 -36 c-7 -9 -15 -13 -19 -10 -3 3 1 10 9 15 21 14 24
12 10 -5z m540 5 c-8 -5 -19 -10 -25 -10 -5 0 -3 5 5 10 8 5 20 10 25 10 6 0
3 -5 -5 -10z m403 -27 c-7 -2 -19 -2 -25 0 -7 3 -2 5 12 5 14 0 19 -2 13 -5z
m-863 -16 c0 -2 -9 -12 -19 -21 -14 -13 -21 -14 -27 -5 -4 7 -3 10 3 6 6 -4
16 0 23 8 12 14 20 19 20 12z m-9 -50 l-24 -22 19 27 c10 14 21 24 23 22 3 -3
-6 -15 -18 -27z m596 -7 c1 -16 -1 -17 -12 -7 -11 10 -8 19 10 27 1 0 1 -9 2
-20z m-548 7 c-2 -1 -13 -9 -24 -17 -19 -14 -19 -14 -6 3 7 9 18 17 24 17 6 0
8 -1 6 -3z m218 -12 c0 -17 -13 -20 -21 -6 -4 5 0 12 6 14 7 3 13 6 14 6 0 1
1 -6 1 -14z m113 -5 c0 -5 -5 -10 -11 -10 -5 0 -7 5 -4 10 3 6 8 10 11 10 2 0
4 -4 4 -10z m44 -5 c11 -8 29 -16 40 -16 16 -1 17 -2 4 -6 -16 -4 -78 22 -78
32 0 9 15 4 34 -10z m-347 -20 c0 -16 -23 -9 -30 10 -4 8 1 11 12 8 10 -2 18
-10 18 -18z m453 15 c-8 -5 -19 -10 -25 -10 -5 0 -3 5 5 10 8 5 20 10 25 10 6
0 3 -5 -5 -10z m-258 -14 c7 4 8 3 4 -4 -10 -16 -18 -15 -42 4 -18 14 -18 15
4 4 12 -6 28 -8 34 -4z m-57 -6 c3 -6 -1 -7 -9 -4 -18 7 -21 14 -7 14 6 0 13
-4 16 -10z m555 -16 c0 -8 -5 -12 -10 -9 -6 4 -8 11 -5 16 9 14 15 11 15 -7z
m-145 -53 c-6 -5 -25 10 -25 20 0 5 6 4 14 -3 8 -7 12 -15 11 -17z m30 19 c3
-5 1 -10 -4 -10 -6 0 -11 5 -11 10 0 6 2 10 4 10 3 0 8 -4 11 -10z m-400 -78
c-3 -3 -11 0 -18 7 -9 10 -8 11 6 5 10 -3 15 -9 12 -12z m78 11 c-7 -2 -19 -2
-25 0 -7 3 -2 5 12 5 14 0 19 -2 13 -5z m10 -20 c-7 -2 -21 -2 -30 0 -10 3 -4
5 12 5 17 0 24 -2 18 -5z"/>
<path d="M4575 5359 c-10 -15 3 -25 16 -12 7 7 7 13 1 17 -6 3 -14 1 -17 -5z"/>
<path d="M3491 5761 c-10 -6 -10 -10 -1 -16 13 -8 24 -1 19 14 -3 6 -10 7 -18
2z"/>
<path d="M5950 5761 c0 -6 5 -13 10 -16 6 -3 10 1 10 9 0 9 -4 16 -10 16 -5 0
-10 -4 -10 -9z"/>
<path d="M5540 5690 c0 -5 5 -10 10 -10 6 0 10 5 10 10 0 6 -4 10 -10 10 -5 0
-10 -4 -10 -10z"/>
<path d="M3225 5651 c-3 -5 -1 -12 5 -16 5 -3 10 1 10 9 0 18 -6 21 -15 7z"/>
<path d="M3295 5619 c-10 -15 3 -25 16 -12 7 7 7 13 1 17 -6 3 -14 1 -17 -5z"/>
<path d="M3844 5606 c-8 -21 3 -36 27 -36 15 0 20 6 17 22 -4 27 -35 37 -44
14z"/>
<path d="M5945 5600 c3 -5 10 -10 16 -10 5 0 9 5 9 10 0 6 -7 10 -16 10 -8 0
-12 -4 -9 -10z"/>
<path d="M2743 5505 c0 -86 -26 -132 -100 -169 -53 -27 -59 -18 -18 24 21 22
37 42 34 44 -3 3 -32 -2 -64 -11 -90 -23 -181 -13 -322 37 -325 115 -409 132
-532 106 -38 -8 -82 -21 -98 -30 -27 -14 -32 -13 -81 14 l-52 28 -25 -32 c-32
-42 -32 -46 8 -46 83 0 83 -7 1 -83 -65 -60 -194 -233 -194 -259 0 -4 16 -8
35 -8 19 0 35 -1 35 -3 0 -2 -11 -37 -25 -77 -14 -40 -25 -75 -25 -78 0 -2 15
-1 33 2 l34 6 7 -147 c7 -165 23 -270 56 -368 20 -61 21 -68 6 -84 -9 -10 -16
-21 -16 -24 0 -4 29 -7 64 -7 55 0 66 3 71 19 3 11 16 35 29 54 23 33 23 38
13 110 -8 58 -8 81 2 105 24 57 83 54 154 -8 63 -56 81 -98 73 -172 l-7 -59
28 3 c26 3 28 7 31 51 2 26 8 47 13 47 6 0 8 -12 5 -27 -14 -76 -16 -113 -8
-170 5 -35 7 -63 5 -63 -2 0 -26 9 -53 21 -41 17 -52 19 -72 8 -22 -12 -20
-14 47 -45 39 -18 76 -33 83 -33 6 -1 12 -7 12 -14 0 -13 48 -42 56 -34 2 2
-1 30 -7 63 -14 73 -7 239 11 276 30 62 128 87 385 97 143 6 197 12 220 24
l30 15 -27 11 c-30 11 -48 38 -48 72 0 25 -12 18 -15 -9 -7 -58 -16 -69 -62
-76 -25 -3 -100 -6 -167 -6 -156 0 -248 -14 -314 -46 -52 -25 -54 -26 -74 -8
-19 18 -20 27 -15 117 6 112 10 120 94 170 59 35 59 29 12 137 -33 76 -35 73
76 119 132 55 239 80 405 95 129 11 168 18 214 39 66 30 118 69 141 103 16 25
16 25 -7 13 -13 -6 -42 -25 -65 -40 -23 -16 -43 -29 -46 -29 -2 0 11 30 30 66
42 85 46 158 9 201 l-24 28 1 -60z"/>
<path d="M5682 5501 c-11 -7 -11 -9 2 -14 10 -4 16 -1 16 8 0 17 -1 17 -18 6z"/>
<path d="M5755 5469 c-10 -15 3 -25 16 -12 7 7 7 13 1 17 -6 3 -14 1 -17 -5z"/>
<path d="M5272 4978 c7 -19 38 -22 38 -4 0 10 -9 16 -21 16 -12 0 -19 -5 -17
-12z"/>
<path d="M5250 4943 c0 -10 -5 -24 -12 -31 -17 -17 -1 -27 18 -11 16 13 17 12
12 -8 -7 -26 14 -48 37 -39 26 10 16 49 -21 79 -30 26 -34 27 -34 10z"/>
<path d="M5197 4926 c-3 -8 -3 -17 0 -20 9 -9 34 15 27 25 -8 13 -21 11 -27
-5z"/>
<path d="M2200 4900 c-25 -6 -24 -7 7 -14 33 -8 155 -89 187 -125 25 -27 40
-27 60 3 15 24 15 25 -19 36 -18 6 -62 29 -97 52 -72 47 -103 57 -138 48z"/>
<path d="M2300 4761 c-16 -32 -12 -87 10 -112 l20 -24 20 24 c35 41 21 131
-20 131 -11 0 -24 -9 -30 -19z m28 -22 c-2 -6 -8 -10 -13 -10 -5 0 -11 4 -13
10 -2 6 4 11 13 11 9 0 15 -5 13 -11z"/>
<path d="M4890 4650 c0 -11 2 -20 5 -20 2 0 9 9 15 20 9 16 8 20 -5 20 -8 0
-15 -9 -15 -20z"/>
<path d="M4840 4602 c0 -28 11 -34 26 -14 19 24 17 32 -6 32 -13 0 -20 -7 -20
-18z"/>
<path d="M1669 4579 c-21 -41 24 -219 61 -239 11 -6 24 -4 38 6 26 18 28 33 5
49 -19 14 -9 35 18 35 26 0 25 30 -6 90 -38 75 -92 103 -116 59z"/>
<path d="M1588 4076 c-47 -18 -109 -50 -136 -71 -27 -20 -74 -47 -103 -59 -66
-26 -142 -115 -164 -191 -33 -115 -65 -383 -65 -552 l0 -81 84 33 c93 36 168
55 222 55 21 0 33 4 29 10 -3 6 2 10 11 10 10 0 14 3 11 7 -4 3 -17 2 -30 -4
-12 -6 -56 -17 -97 -24 l-75 -14 8 105 c4 58 9 121 10 140 1 19 7 38 12 43 6
4 5 10 -4 16 -12 8 -12 12 2 26 19 19 23 50 5 39 -8 -5 -9 -2 -3 12 4 10 11
37 15 59 l7 40 16 -35 c20 -44 22 -25 2 23 -15 37 -10 82 6 56 5 -8 7 -2 7 16
-1 42 11 77 24 69 6 -4 8 -2 4 4 -7 11 28 80 52 99 7 6 20 9 28 6 11 -4 10 -9
-3 -29 -8 -13 -13 -25 -9 -25 3 -1 11 -3 16 -4 6 -1 15 -3 20 -4 6 0 10 -8 10
-16 0 -8 -4 -15 -10 -15 -5 0 -10 -12 -10 -27 0 -25 1 -26 14 -8 12 16 13 8
13 -66 0 -61 -1 -68 -4 -26 -3 41 -8 57 -18 57 -8 0 -15 -5 -15 -11 0 -5 5 -7
10 -4 10 6 12 -27 15 -220 0 -55 -1 -92 -3 -82 -4 21 -18 22 -26 1 -3 -8 -2
-12 4 -9 6 3 10 -2 10 -12 0 -10 3 -29 5 -43 5 -22 4 -22 -4 -5 -9 19 -10 19
-10 -2 -1 -13 3 -23 7 -23 4 0 8 -9 8 -20 0 -11 -4 -20 -8 -20 -4 0 -8 5 -8
12 0 6 -6 3 -14 -8 -8 -10 -12 -21 -10 -24 3 -2 9 1 13 9 6 9 24 -17 56 -81
26 -51 52 -98 59 -105 8 -10 35 6 116 68 l105 79 0 78 c0 65 4 82 24 111 21
29 28 33 59 28 25 -5 48 1 85 20 42 21 57 24 86 17 38 -10 42 -16 86 -126 23
-56 25 -70 14 -90 -32 -60 -62 -87 -125 -112 -60 -24 -80 -42 -274 -239 -115
-117 -224 -221 -243 -231 -31 -17 -37 -29 -80 -160 -69 -209 -80 -265 -79
-391 1 -94 -7 -151 -55 -400 -43 -227 -60 -298 -79 -325 -13 -19 -95 -127
-183 -240 -144 -186 -158 -207 -144 -222 13 -15 13 -26 -6 -105 -18 -77 -19
-90 -6 -109 25 -39 259 -145 285 -129 20 12 9 31 -38 67 -71 55 -90 79 -98
124 -5 37 -4 42 16 47 13 3 23 0 27 -9 3 -8 11 -14 19 -14 16 0 19 26 4 35 -5
3 -10 11 -10 17 0 7 10 1 22 -12 l21 -23 17 21 c10 12 20 19 23 16 5 -6 108
59 381 241 l150 100 33 75 c18 41 95 216 171 389 l138 313 71 23 72 22 93 -56
c112 -69 572 -353 575 -355 1 0 5 -108 9 -239 l7 -237 28 0 c28 0 29 -2 29
-47 0 -96 35 -117 216 -129 135 -10 178 24 72 55 -63 19 -114 48 -132 73 -26
37 -20 48 28 48 l43 0 61 313 c60 305 65 337 63 366 0 8 -153 168 -340 355
l-339 341 -10 65 c-6 36 -14 146 -17 245 -3 98 -15 273 -25 389 -11 115 -20
211 -20 214 0 2 32 -25 71 -61 88 -81 111 -94 146 -81 14 5 31 17 37 27 9 15
4 23 -31 53 -24 20 -43 44 -43 54 0 10 -9 22 -21 25 -21 7 -22 26 -1 33 8 2
10 -3 5 -15 -6 -16 -5 -16 10 -4 10 8 15 16 13 19 -3 2 -1 13 5 23 7 15 6 17
-6 13 -8 -3 -12 -11 -9 -16 4 -6 -2 -7 -16 -3 -14 4 -20 3 -16 -3 12 -19 -20
-20 -45 -1 -19 16 -20 18 -4 12 18 -6 18 -5 7 10 -8 9 -17 16 -20 15 -14 -4
-52 23 -62 45 -10 19 -9 19 9 -3 11 -14 21 -20 21 -13 0 6 -12 21 -27 33 -30
23 -48 66 -32 76 6 4 7 10 0 17 -5 7 -8 48 -6 92 4 103 3 98 20 91 8 -3 15 -1
15 4 0 6 4 10 10 10 5 0 7 -7 4 -15 -4 -8 -2 -15 4 -15 15 0 9 22 -14 55 -12
17 -29 44 -37 62 -11 21 -34 40 -69 56 -48 23 -58 25 -103 15 -38 -8 -70 -8
-138 4 -48 7 -87 12 -87 9 0 -8 68 -51 80 -51 16 0 30 -37 30 -81 0 -36 -6
-48 -43 -84 -52 -53 -120 -75 -227 -75 -212 0 -327 120 -260 269 11 24 20 45
20 47 0 11 -43 0 -122 -30z m937 -136 c-3 -4 1 -10 7 -13 7 -2 9 -8 5 -13 -4
-5 -12 -2 -17 6 -13 20 -13 43 0 35 6 -4 8 -10 5 -15z m-1035 -59 c0 -5 -7
-12 -16 -15 -14 -5 -15 -4 -4 9 14 17 20 19 20 6z m1086 -1586 c-4 -21 0 -26
27 -34 l32 -9 -34 -1 c-29 -1 -32 -3 -21 -16 7 -9 10 -18 6 -22 -3 -4 -27 15
-52 41 -46 47 -55 79 -11 38 28 -27 37 -28 37 -4 0 17 8 32 17 32 2 0 1 -11
-1 -25z m-96 -25 c0 -5 -4 -10 -10 -10 -5 0 -10 5 -10 10 0 6 5 10 10 10 6 0
10 -4 10 -10z m55 -60 c16 -16 24 -30 19 -30 -6 0 -23 14 -39 30 -16 17 -24
30 -19 30 6 0 23 -13 39 -30z m-23 -34 c12 -17 10 -24 -13 -47 -20 -20 -20
-22 -3 -40 33 -37 -1 -19 -43 23 l-43 42 27 28 c22 23 29 25 47 16 12 -6 24
-16 28 -22z"/>
<path d="M2452 2181 c-8 -5 -12 -17 -10 -27 5 -26 51 -26 56 0 3 16 -12 36
-28 36 -3 0 -11 -4 -18 -9z"/>
<path d="M5370 3946 c0 -7 7 -19 15 -26 18 -15 20 -74 4 -118 -9 -26 -18 -33
-47 -37 -21 -3 -45 -8 -54 -10 -26 -5 -58 54 -58 104 0 39 -2 42 -22 36 -13
-4 -31 -15 -42 -25 -18 -17 -17 -18 10 -31 20 -10 32 -26 40 -56 l12 -42 -34
-20 c-46 -27 -52 -27 -101 9 -30 22 -43 40 -47 65 -8 42 -27 45 -55 9 -28 -35
-26 -44 7 -44 29 0 53 -20 86 -73 17 -28 17 -28 -19 -77 -20 -28 -40 -50 -44
-50 -26 0 -72 25 -86 46 -19 29 -39 20 -49 -22 -9 -35 0 -45 28 -33 18 9 32 7
60 -6 32 -15 37 -21 31 -43 -3 -13 -8 -37 -12 -52 -5 -25 -10 -29 -59 -35 -45
-5 -59 -3 -83 14 -34 25 -41 19 -41 -30 0 -46 11 -55 35 -29 20 22 52 25 108
9 31 -8 37 -14 37 -37 0 -15 4 -42 9 -60 9 -31 8 -34 -22 -53 -24 -14 -42 -18
-69 -13 -43 7 -46 -1 -23 -46 19 -36 41 -39 49 -6 5 22 48 46 80 46 11 0 56
-71 56 -88 0 -4 -16 -27 -36 -50 -27 -32 -43 -42 -65 -42 -35 0 -38 -18 -6
-48 30 -28 47 -28 47 1 0 29 15 48 64 80 l38 26 49 -32 c27 -18 49 -39 49 -48
0 -34 -22 -77 -45 -87 -30 -14 -32 -28 -6 -42 20 -10 71 -14 71 -5 0 2 -5 15
-11 29 -9 20 -7 31 12 65 14 26 28 40 37 36 7 -3 22 -5 32 -5 31 0 48 -27 55
-85 6 -46 4 -58 -14 -81 -11 -14 -18 -30 -15 -35 8 -13 58 -11 78 4 16 12 16
14 -3 31 -24 22 -26 47 -9 110 11 43 14 46 60 56 27 5 51 10 53 10 3 0 16 -18
30 -40 20 -32 24 -48 19 -75 -5 -30 -3 -35 13 -35 21 0 63 27 63 40 0 5 -9 12
-21 15 -23 8 -49 60 -49 99 0 15 10 30 27 41 25 17 28 17 58 0 54 -28 95 -72
95 -99 0 -36 16 -41 45 -12 34 34 33 56 -4 56 -31 0 -61 31 -94 96 -15 29 -15
33 9 67 14 21 30 37 37 37 42 -1 95 -22 115 -47 22 -27 23 -27 37 -9 8 11 15
30 15 43 0 22 -3 23 -35 17 -29 -5 -43 -1 -75 20 -42 28 -51 57 -27 89 19 26
138 35 172 13 30 -20 45 -14 45 19 0 49 -30 76 -44 40 -7 -18 -58 -20 -122 -4
-51 13 -50 11 -58 65 -7 41 -7 41 43 74 28 17 51 35 51 40 0 4 -23 1 -52 -6
-70 -18 -73 -18 -86 11 -18 39 -15 49 28 104 30 37 48 52 75 57 19 3 35 9 35
12 0 12 -54 62 -67 62 -8 0 -13 -12 -13 -30 0 -33 -26 -62 -83 -92 l-39 -19
-39 27 c-44 30 -43 28 -28 90 8 32 19 49 35 56 31 14 30 32 -1 46 -46 21 -57
16 -50 -22 5 -22 1 -43 -9 -62 -31 -57 -30 -57 -74 -44 -33 10 -41 18 -46 43
-11 54 -7 114 9 127 29 24 18 40 -30 40 -32 0 -45 -4 -45 -14z m7 -248 c-3 -8
-6 -5 -6 6 -1 11 2 17 5 13 3 -3 4 -12 1 -19z m68 -18 c-3 -5 -13 -6 -21 -3
-12 4 -13 8 -3 14 15 9 32 2 24 -11z m-265 -45 c-7 -8 -17 -15 -23 -15 -6 0
-2 7 9 15 25 19 30 19 14 0z m40 -28 c-10 -9 -11 -9 -6 1 5 7 1 12 -11 13 -16
0 -16 1 2 8 23 10 33 -5 15 -22z m247 1 c-3 -8 -6 -5 -6 6 -1 11 2 17 5 13 3
-3 4 -12 1 -19z m-327 -13 c-7 -9 -15 -13 -19 -10 -3 3 1 10 9 15 21 14 24 12
10 -5z m493 -9 c4 -10 1 -13 -9 -9 -7 3 -14 9 -14 14 0 14 17 10 23 -5z m-393
-26 c0 -24 -20 -37 -31 -19 -11 19 0 27 12 9 8 -11 9 -8 4 13 -4 19 -2 26 5
22 5 -3 10 -15 10 -25z m-70 -11 c0 -6 -4 -7 -10 -4 -5 3 -10 11 -10 16 0 6 5
7 10 4 6 -3 10 -11 10 -16z m104 -10 c-3 -5 0 -18 8 -27 12 -15 11 -16 -4 -4
-16 13 -22 56 -6 46 5 -3 6 -10 2 -15z m136 -29 c-6 -12 -14 -20 -17 -17 -2 3
1 14 8 26 17 26 24 19 9 -9z m188 5 c-3 -3 -9 2 -12 12 -6 14 -5 15 5 6 7 -7
10 -15 7 -18z m-268 5 c8 -5 11 -10 5 -10 -5 0 -17 5 -25 10 -8 5 -10 10 -5
10 6 0 17 -5 25 -10z m245 -1 c11 -16 1 -19 -13 -3 -7 8 -8 14 -3 14 5 0 13
-5 16 -11z m-198 -5 c-3 -3 -12 -4 -19 -1 -8 3 -5 6 6 6 11 1 17 -2 13 -5z
m-2 -92 c-7 -25 -8 -25 -15 -7 -12 28 -12 43 0 25 8 -12 10 -10 11 10 0 14 3
19 6 12 3 -7 2 -25 -2 -40z m221 -4 c-9 -12 -16 -17 -16 -10 0 14 23 42 29 37
1 -2 -4 -14 -13 -27z m-336 8 c0 -3 -4 -8 -10 -11 -5 -3 -10 -1 -10 4 0 6 5
11 10 11 6 0 10 -2 10 -4z m-203 -118 c-3 -8 -6 -5 -6 6 -1 11 2 17 5 13 3 -3
4 -12 1 -19z m480 0 c-3 -8 -6 -5 -6 6 -1 11 2 17 5 13 3 -3 4 -12 1 -19z
m-23 -13 c-4 -8 -11 -15 -16 -15 -6 0 -5 6 2 15 7 8 14 15 16 15 2 0 1 -7 -2
-15z m-104 -52 c0 -7 -39 17 -46 28 -3 6 5 3 20 -6 14 -10 26 -19 26 -22z
m107 21 c-3 -3 -12 -4 -19 -1 -8 3 -5 6 6 6 11 1 17 -2 13 -5z m68 -12 c-3 -3
-11 0 -18 7 -9 10 -8 11 6 5 10 -3 15 -9 12 -12z m-215 -11 c0 -5 -7 -11 -14
-14 -10 -4 -13 -1 -9 9 6 15 23 19 23 5z m98 -7 c-9 -9 -21 -13 -27 -9 -16 10
-3 25 22 25 20 0 20 -1 5 -16z m102 -4 c0 -5 -2 -10 -4 -10 -3 0 -8 5 -11 10
-3 6 -1 10 4 10 6 0 11 -4 11 -10z m30 -3 c0 -2 -15 -16 -32 -33 l-33 -29 29
33 c28 30 36 37 36 29z m-475 -25 c-3 -3 -11 0 -18 7 -9 10 -8 11 6 5 10 -3
15 -9 12 -12z m293 7 c-28 -16 -21 -79 9 -79 8 0 11 5 8 10 -3 6 1 10 11 10
14 0 14 -3 4 -15 -16 -19 -10 -26 17 -19 11 3 26 17 32 30 6 13 15 24 21 24 8
0 8 -4 0 -12 -6 -7 -17 -22 -24 -33 -22 -30 -91 -25 -122 9 -14 14 -29 26 -34
26 -6 0 -10 7 -10 15 0 12 4 11 20 -5 27 -27 35 -25 35 10 1 17 -4 29 -10 27
-5 -2 -9 -13 -7 -23 2 -15 1 -16 -7 -4 -14 21 6 40 43 40 26 -1 28 -2 14 -11z
m-267 -36 c13 -16 12 -17 -3 -4 -10 7 -18 15 -18 17 0 8 8 3 21 -13z m164 -12
c-3 -6 -11 -11 -16 -11 -5 0 -4 6 3 14 14 16 24 13 13 -3z m-160 -21 c3 -5 1
-10 -4 -10 -6 0 -11 5 -11 10 0 6 2 10 4 10 3 0 8 -4 11 -10z m42 -8 c-13 -15
-14 -21 -4 -31 9 -11 8 -11 -10 0 -21 12 -21 14 -5 31 23 23 40 23 19 0z m63
-12 c0 -5 -7 -7 -15 -4 -8 4 -15 8 -15 10 0 2 7 4 15 4 8 0 15 -4 15 -10z
m285 0 c-3 -5 -11 -10 -16 -10 -6 0 -7 5 -4 10 3 6 11 10 16 10 6 0 7 -4 4
-10z m25 -14 c0 -2 -7 -7 -16 -10 -8 -3 -12 -2 -9 4 6 10 25 14 25 6z m-205
-55 c-9 -8 -36 -10 -30 -2 2 4 11 8 20 8 8 0 13 -3 10 -6z m45 5 c0 -2 -7 -7
-16 -10 -8 -3 -12 -2 -9 4 6 10 25 14 25 6z"/>
<path d="M2583 3879 c-2 -23 3 -25 10 -4 4 8 3 16 -1 19 -4 3 -9 -4 -9 -15z"/>
<path d="M1420 3870 c0 -5 5 -10 11 -10 5 0 7 5 4 10 -3 6 -8 10 -11 10 -2 0
-4 -4 -4 -10z"/>
<path d="M2528 3868 c7 -7 13 -30 13 -52 l2 -41 6 40 c7 40 -2 65 -22 65 -7 0
-7 -4 1 -12z"/>
<path d="M2517 3823 c8 -52 13 -54 13 -5 0 23 -4 42 -9 42 -6 0 -7 -17 -4 -37z"/>
<path d="M2640 3840 c0 -12 17 -26 58 -51 21 -12 32 -25 28 -34 -3 -9 0 -12 9
-9 10 4 13 0 10 -15 -4 -22 10 -38 20 -21 9 14 26 13 23 -2 -2 -7 -11 -21 -20
-32 -10 -11 -18 -24 -18 -29 0 -4 -7 -15 -15 -23 -8 -9 -15 -25 -14 -37 0 -15
2 -17 6 -7 8 22 65 104 77 112 6 4 17 1 25 -5 11 -10 13 -9 9 3 -3 8 -15 14
-27 13 -12 -2 -20 1 -17 5 3 5 -20 29 -50 53 -31 24 -67 54 -80 66 -13 12 -24
18 -24 13z m125 -109 c3 -5 2 -12 -3 -15 -5 -3 -9 1 -9 9 0 17 3 19 12 6z"/>
<path d="M1400 3829 c0 -5 5 -7 10 -4 6 3 10 8 10 11 0 2 -4 4 -10 4 -5 0 -10
-5 -10 -11z"/>
<path d="M1451 3824 c0 -11 3 -14 6 -6 3 7 2 16 -1 19 -3 4 -6 -2 -5 -13z"/>
<path d="M1460 3791 c0 -7 -4 -10 -9 -7 -5 4 -7 -4 -3 -16 l5 -22 9 24 c5 12
6 25 3 28 -3 3 -5 0 -5 -7z"/>
<path d="M2538 3717 c-3 -19 -2 -25 4 -19 6 6 8 18 6 28 -3 14 -5 12 -10 -9z"/>
<path d="M1460 3710 c0 -5 5 -10 10 -10 6 0 10 5 10 10 0 6 -4 10 -10 10 -5 0
-10 -4 -10 -10z"/>
<path d="M1450 3679 c0 -5 5 -7 10 -4 6 3 10 8 10 11 0 2 -4 4 -10 4 -5 0 -10
-5 -10 -11z"/>
<path d="M2520 3665 c0 -8 4 -15 10 -15 5 0 7 7 4 15 -4 8 -8 15 -10 15 -2 0
-4 -7 -4 -15z"/>
<path d="M1461 3583 c0 -21 4 -46 8 -57 4 -11 7 4 7 38 -1 31 -4 56 -8 56 -5
0 -8 -17 -7 -37z"/>
<path d="M2578 3613 c7 -3 16 -2 19 1 4 3 -2 6 -13 5 -11 0 -14 -3 -6 -6z"/>
<path d="M2610 3610 c0 -5 5 -10 10 -10 6 0 10 5 10 10 0 6 -4 10 -10 10 -5 0
-10 -4 -10 -10z"/>
<path d="M5854 3598 c-4 -13 -2 -24 4 -26 6 -2 8 -10 5 -18 -4 -10 2 -14 21
-14 30 0 32 9 11 50 -18 36 -31 38 -41 8z"/>
<path d="M4096 3580 c10 -46 -2 -77 -33 -85 -22 -5 -32 -2 -46 16 -10 12 -15
30 -12 40 7 21 -2 24 -25 9 -13 -9 -13 -12 3 -21 43 -25 2 -93 -43 -69 -19 10
-20 9 -14 -14 9 -36 -24 -76 -53 -65 -11 4 -24 12 -28 18 -10 18 -25 12 -25
-9 0 -12 6 -20 13 -18 25 4 59 -14 53 -29 -3 -8 -6 -21 -6 -28 0 -18 -54 -29
-79 -16 -23 13 -31 4 -21 -23 4 -14 9 -16 14 -8 12 20 64 14 76 -7 23 -44 -4
-90 -44 -75 -19 7 -20 0 -5 -28 l11 -20 14 21 c19 27 46 27 62 0 11 -17 11
-25 -3 -46 -10 -14 -26 -28 -36 -30 -23 -6 -24 -16 -5 -32 12 -10 17 -7 28 15
21 42 43 52 75 32 31 -19 34 -54 8 -74 -20 -15 -19 -21 5 -27 16 -4 20 0 20
23 0 62 64 65 76 4 4 -22 2 -40 -5 -47 -16 -16 -13 -27 7 -27 26 0 34 11 21
26 -15 18 -3 80 17 88 33 13 52 5 64 -23 6 -17 9 -35 5 -40 -7 -12 5 -14 29
-5 20 8 21 24 2 24 -27 0 -36 60 -11 80 12 10 21 8 50 -14 19 -15 35 -34 35
-42 0 -17 12 -18 28 -2 9 9 6 14 -10 22 -12 6 -30 23 -40 37 -16 22 -17 29 -7
52 7 15 16 27 20 27 17 0 64 -22 71 -33 6 -9 11 -8 18 3 15 23 12 32 -8 28
-23 -4 -72 21 -72 36 0 22 16 34 56 40 26 5 44 3 49 -3 3 -6 10 -11 16 -11 12
0 12 37 -1 45 -5 3 -10 1 -10 -6 0 -8 -14 -10 -45 -6 -53 5 -50 4 -58 38 -5
20 -1 28 22 42 16 9 36 14 45 11 10 -4 16 -1 16 9 0 23 -20 31 -33 14 -19 -23
-66 -28 -77 -7 -13 23 33 90 62 90 21 0 21 0 2 21 l-19 21 -5 -23 c-3 -13 -20
-32 -38 -42 -30 -17 -34 -18 -56 -4 -26 17 -26 56 0 78 20 16 17 26 -7 32 -15
4 -19 2 -15 -9 3 -9 -1 -28 -9 -44 -13 -24 -19 -28 -37 -21 -27 10 -43 62 -28
90 14 27 13 31 -10 31 -16 0 -19 -5 -14 -30z m47 -123 c4 3 7 2 7 -4 0 -18
-12 -22 -26 -8 -18 18 -18 31 -1 16 8 -6 17 -8 20 -4z m-150 -30 c3 -7 -3 -13
-14 -13 -13 0 -15 3 -7 13 6 7 12 13 13 13 2 0 5 -6 8 -13z m208 -13 c10 -12
9 -13 -5 -8 -17 7 -23 -11 -6 -21 6 -3 10 -12 10 -18 0 -7 -6 -4 -14 5 -7 10
-17 14 -21 10 -5 -4 -6 0 -2 9 3 9 1 21 -4 26 -5 5 -1 9 10 10 11 1 25 -5 32
-13z m-211 -18 c0 -2 -7 -7 -16 -10 -8 -3 -12 -2 -9 4 6 10 25 14 25 6z m-31
-40 c-3 -3 -11 5 -18 17 -13 21 -12 21 5 5 10 -10 16 -20 13 -22z m61 30 c0
-3 -4 -8 -10 -11 -5 -3 -10 -1 -10 4 0 6 5 11 10 11 6 0 10 -2 10 -4z m110
-20 c0 -3 -4 -8 -10 -11 -5 -3 -10 -1 -10 4 0 6 5 11 10 11 6 0 10 -2 10 -4z
m115 -6 c-4 -6 -2 -17 5 -25 8 -10 8 -15 -2 -21 -7 -4 -10 -4 -6 1 4 4 3 14
-3 21 -10 12 -5 34 7 34 3 0 2 -5 -1 -10z m-314 -23 c-10 -9 -11 -8 -5 6 3 10
9 15 12 12 3 -3 0 -11 -7 -18z m135 8 c9 -8 11 -15 5 -15 -5 0 -13 5 -16 10
-4 6 -11 7 -17 4 -7 -4 -8 -2 -4 4 9 16 14 15 32 -3z m-109 -25 c-4 -27 -17
-38 -17 -13 0 18 8 33 17 33 1 0 2 -9 0 -20z m-43 -12 c-4 -6 0 -14 7 -19 11
-7 11 -9 1 -9 -8 0 -10 -5 -6 -12 4 -8 3 -9 -2 -5 -11 11 -14 68 -2 61 4 -3 5
-10 2 -16z m87 13 c-7 -5 -10 -14 -6 -21 6 -9 9 -9 16 1 6 10 9 10 9 2 0 -19
-17 -24 -30 -8 -13 16 -6 35 13 35 8 0 7 -3 -2 -9z m215 -23 c-18 -26 -22 -17
-5 14 6 11 13 17 16 15 3 -3 -2 -16 -11 -29z m-35 -51 c-10 -9 -11 -8 -5 6 3
10 9 15 12 12 3 -3 0 -11 -7 -18z m-77 -58 c-8 -14 -21 -11 -21 5 0 8 6 12 14
9 7 -3 10 -9 7 -14z m116 5 c0 -7 -27 -34 -34 -34 -4 0 -1 9 6 20 12 19 28 27
28 14z m-256 -30 c3 -8 2 -12 -4 -9 -6 3 -10 10 -10 16 0 14 7 11 14 -7z m101
-3 c-3 -6 -11 -11 -16 -11 -5 0 -4 6 3 14 14 16 24 13 13 -3z m-5 -21 c8 6 20
10 25 10 6 0 4 -4 -3 -9 -8 -4 -13 -11 -13 -15 3 -24 -1 -28 -16 -14 -10 9
-24 13 -30 11 -7 -3 -13 -1 -13 5 0 15 13 22 24 12 7 -5 17 -5 26 0z m66 -11
c3 -6 1 -16 -5 -22 -9 -9 -10 -7 -5 7 6 16 4 18 -10 13 -10 -4 -15 -3 -11 3 8
13 22 13 31 -1z"/>
<path d="M1331 3584 c0 -11 3 -14 6 -6 3 7 2 16 -1 19 -3 4 -6 -2 -5 -13z"/>
<path d="M1443 3525 c0 -27 2 -38 4 -22 2 15 2 37 0 50 -2 12 -4 0 -4 -28z"/>
<path d="M1332 3535 c0 -16 2 -22 5 -12 2 9 2 23 0 30 -3 6 -5 -1 -5 -18z"/>
<path d="M2635 3531 c-3 -5 -2 -12 3 -15 5 -3 9 1 9 9 0 17 -3 19 -12 6z"/>
<path d="M1461 3474 c0 -11 3 -14 6 -6 3 7 2 16 -1 19 -3 4 -6 -2 -5 -13z"/>
<path d="M1320 3471 c0 -6 4 -13 10 -16 6 -3 7 1 4 9 -7 18 -14 21 -14 7z"/>
<path d="M1326 3401 c-4 -7 -5 -15 -2 -18 9 -9 19 4 14 18 -4 11 -6 11 -12 0z"/>
<path d="M1445 3379 c-4 -6 -5 -12 -2 -15 2 -3 7 2 10 11 7 17 1 20 -8 4z"/>
<path d="M5315 2380 c4 -6 11 -8 16 -5 14 9 11 15 -7 15 -8 0 -12 -5 -9 -10z"/>
<path d="M5235 2361 c-3 -5 -1 -12 5 -16 16 -10 11 -42 -7 -50 -12 -4 -25 2
-39 19 -12 13 -25 22 -28 19 -3 -4 3 -12 14 -20 40 -28 10 -90 -31 -65 -24 16
-29 15 -29 -3 0 -8 6 -12 13 -10 22 8 40 -11 32 -35 -6 -18 -13 -21 -41 -18
-20 2 -34 0 -34 -7 0 -7 14 -9 35 -7 27 3 35 0 35 -11 0 -8 3 -22 6 -31 4 -10
-2 -17 -20 -22 -14 -3 -26 -10 -26 -15 0 -12 14 -11 27 2 7 7 19 9 28 5 23 -8
15 -48 -12 -62 -17 -8 -20 -13 -11 -22 9 -9 14 -6 22 11 14 27 35 32 61 14 18
-14 18 -16 2 -41 -15 -22 -15 -26 -3 -26 8 0 16 10 18 23 4 26 48 38 48 13 0
-20 16 -21 24 -1 13 35 71 3 59 -33 -3 -7 1 -10 11 -6 14 5 14 8 -1 31 -15 22
-15 26 0 40 14 15 18 13 46 -14 16 -17 32 -29 34 -26 3 2 -6 15 -19 28 -26 26
-29 41 -14 65 8 13 13 13 39 -2 29 -16 41 -14 41 5 0 5 -6 7 -12 4 -21 -7 -48
12 -48 34 0 19 5 21 45 17 32 -2 45 1 45 10 0 9 -7 11 -19 7 -30 -9 -71 5 -71
24 0 22 19 41 42 41 18 0 24 11 12 23 -4 3 -13 0 -21 -8 -8 -8 -21 -15 -29
-15 -19 0 -30 28 -15 43 18 18 13 28 -8 16 -37 -24 -70 18 -39 49 8 8 9 15 1
23 -7 7 -12 1 -16 -20 -8 -37 -39 -42 -55 -8 -8 16 -11 17 -11 6 -1 -24 -43
-33 -59 -12 -7 10 -10 23 -8 30 6 15 -10 18 -19 4z m125 -92 c-6 -11 -6 -19 0
-22 6 -3 5 -4 -1 -3 -17 3 -19 43 -3 43 9 0 10 -5 4 -18z m-102 -44 c-3 -3 -9
2 -12 12 -6 14 -5 15 5 6 7 -7 10 -15 7 -18z m89 -1 c-3 -3 -12 -4 -19 -1 -8
3 -5 6 6 6 11 1 17 -2 13 -5z m-43 -16 c-3 -4 -11 -5 -19 -1 -21 7 -19 12 4
10 11 0 18 -5 15 -9z m-68 -30 c4 -7 3 -8 -5 -4 -6 4 -14 0 -17 -8 -3 -9 -10
-13 -16 -10 -5 3 -1 12 9 20 22 17 20 16 29 2z m74 -59 c0 -6 -4 -7 -10 -4 -5
3 -10 11 -10 16 0 6 5 7 10 4 6 -3 10 -11 10 -16z m124 7 c-3 -9 -12 -12 -22
-9 -15 6 -9 11 25 22 1 1 0 -5 -3 -13z m-24 -25 c0 -3 -12 -17 -27 -31 -25
-24 -26 -24 -14 -2 6 12 17 22 23 22 7 0 6 5 -2 15 -11 13 -10 14 4 9 9 -3 16
-9 16 -13z m-96 -45 c-6 -15 -24 -23 -24 -11 0 8 24 34 28 30 1 -1 0 -10 -4
-19z"/>
<path d="M5470 2316 c0 -9 5 -16 10 -16 6 0 10 4 10 9 0 6 -4 13 -10 16 -5 3
-10 -1 -10 -9z"/>
<path d="M5295 1950 c-3 -5 3 -10 15 -10 12 0 18 5 15 10 -3 6 -10 10 -15 10
-5 0 -12 -4 -15 -10z"/>
</g>
</svg>
